<svg width="63" height="63" viewBox="0 0 63 63" fill="none" xmlns="http://www.w3.org/2000/svg">
<circle cx="31.5" cy="31.5" r="31" stroke="#CDCDCD"/>
<path d="M17.71 42.5191C18.0725 41.898 18.622 41.4972 19.0858 41.02C19.327 40.7718 19.3293 40.6234 19.0787 40.3886C18.5913 39.9321 18.126 39.451 17.6646 38.9676C16.7847 38.0458 16.7776 36.8194 17.6486 35.8979C18.0628 35.4596 18.492 35.0349 18.9257 34.6157C19.1087 34.4388 19.1405 34.2941 18.9832 34.072C17.5967 32.1143 19.2395 29.5876 21.5373 29.3781C22.3229 29.3064 23.0161 29.7077 23.582 30.2744C24.4579 31.1515 25.334 32.0284 26.2126 32.9028C26.3606 33.0501 26.4879 33.2252 26.6596 33.2944C29.2077 30.7304 31.7418 28.1804 34.3291 25.5769C33.8253 25.0818 33.2674 24.5371 32.7136 23.9882C32.2733 23.552 31.8527 23.0949 31.3979 22.6747C29.6988 21.1048 30.3947 18.9963 31.9372 17.9775C32.93 17.3218 33.9654 17.2327 34.9929 17.9161C35.2799 18.107 35.4833 18.0711 35.7122 17.8231C36.0658 17.44 36.4437 17.0792 36.8173 16.7152C37.7878 15.7694 39.0696 15.758 40.0373 16.7029C40.5837 17.2365 41.1032 17.7976 41.6799 18.3928C42.1249 17.9525 42.5116 17.5639 42.9048 17.1821C43.9892 16.1291 45.3495 16.274 46.1873 17.529C46.695 18.2894 46.6102 19.2506 45.9381 19.9509C45.5224 20.3839 45.0663 20.7779 44.512 21.2989C45.1354 21.8775 45.6921 22.3732 46.2251 22.8932C47.2556 23.8985 47.2559 25.1946 46.2402 26.2145C45.8605 26.5958 45.4847 26.9817 45.0911 27.3482C44.8865 27.5387 44.8633 27.6989 45.0202 27.9368C45.9703 29.3768 45.5082 30.9174 44.1733 31.9865C43.0493 32.8867 41.4877 32.7408 40.3665 31.6345C39.5076 30.7869 38.6592 29.9285 37.8047 29.0763C37.6567 28.9287 37.5016 28.7882 37.2439 28.5443C36.6544 29.1726 36.1023 29.7892 35.5204 30.3763C33.6723 32.2407 31.8181 34.0993 29.9525 35.9461C29.6823 36.2137 29.6597 36.3736 29.944 36.6482C30.8589 37.5319 31.7283 38.463 32.6494 39.3398C34.3773 40.9846 33.4764 43.321 31.725 44.2034C30.7598 44.6897 29.8425 44.6419 28.9648 44.0266C28.7253 43.8587 28.5688 43.8844 28.3775 44.0802C27.9559 44.5116 27.5329 44.9428 27.0892 45.3508C26.1415 46.2222 24.9611 46.2156 24.0244 45.3358C23.573 44.9118 23.1173 44.4869 22.7144 44.0186C22.3869 43.638 22.1543 43.6889 21.8593 44.0316C21.6045 44.3274 21.3212 44.6002 21.0366 44.8684C20.3126 45.5509 19.592 45.679 18.7574 45.2878C18.0007 44.9332 17.449 44.0409 17.4755 43.2451C17.484 42.9881 17.5885 42.773 17.71 42.5191ZM20.0193 31.4456C19.4823 32.4839 19.5549 33.0078 20.3867 33.8441C23.353 36.8263 26.3228 39.805 29.2944 42.782C29.9559 43.4446 31.0379 43.4394 31.7197 42.7845C32.5361 42.0005 32.621 41.0249 31.881 40.2805C28.8354 37.2168 25.7749 34.1679 22.7207 31.1127C22.4056 30.7975 22.0373 30.657 21.584 30.6382C20.9234 30.6107 20.4822 30.9612 20.0193 31.4456ZM34.6658 19.166C33.791 18.5027 32.8286 18.5521 32.1803 19.2934C31.3777 20.2112 31.4012 20.9711 32.284 21.8565C35.2295 24.8106 38.18 27.7596 41.1289 30.7103C41.3131 30.8946 41.4961 31.0768 41.7448 31.182C42.6198 31.5518 43.4398 31.2767 44.0241 30.4088C44.5066 29.6921 44.3891 28.8964 43.6992 28.2056C40.7054 25.2079 37.7117 22.2101 34.6658 19.166ZM25.5177 40.6728C23.8138 38.9685 22.1039 37.2701 20.412 35.5539C20.1277 35.2655 19.929 35.2516 19.6593 35.5438C19.3061 35.9264 18.9224 36.2808 18.5648 36.6596C18.0761 37.1775 18.0753 37.6928 18.5876 38.2072C20.644 40.2715 22.7068 42.3295 24.7731 44.3838C25.2605 44.8684 25.8707 44.8606 26.3763 44.3802C26.7421 44.0327 27.0793 43.6536 27.4586 43.3223C27.78 43.0415 27.7183 42.8487 27.4366 42.5822C26.7981 41.9781 26.1877 41.3443 25.5177 40.6728ZM42.2652 25.0788C42.726 25.5391 43.1931 25.9933 43.645 26.4623C43.8688 26.6945 44.0544 26.7354 44.2939 26.4784C44.6712 26.0736 45.0807 25.6991 45.4586 25.2949C45.8774 24.8467 45.8869 24.2448 45.4519 23.8065C43.376 21.7152 41.294 19.6299 39.2001 17.5566C38.7066 17.068 38.1564 17.0979 37.6454 17.5845C37.28 17.9324 36.9465 18.3151 36.5698 18.6497C36.255 18.9293 36.3008 19.1236 36.5823 19.4022C38.4686 21.2696 40.3406 23.1516 42.2652 25.0788ZM28.0783 33.7231C27.9201 33.8838 27.7316 34.0191 27.6427 34.2338C27.864 34.593 28.4171 35.1415 28.7404 35.3361C31.2796 32.782 33.8132 30.2335 36.3024 27.7296C35.9704 27.3814 35.6055 26.9987 35.2057 26.5795C32.8447 28.9468 30.4865 31.3113 28.0783 33.7231ZM45.0326 19.1551C45.4128 18.6884 45.4039 18.3522 45.0011 17.9742C44.5676 17.5673 44.2616 17.5666 43.8171 17.9774C43.686 18.0986 43.5612 18.2269 43.4378 18.356C42.4131 19.4278 42.4133 19.0035 43.5013 20.1684C43.6841 20.3641 43.8342 20.3781 44.0244 20.1745C44.3346 19.8424 44.6627 19.5272 45.0326 19.1551ZM20.5318 41.8513C20.3924 41.7074 20.2542 41.5421 20.0459 41.751C19.6549 42.143 19.2492 42.5224 18.8843 42.9377C18.6021 43.2589 18.6632 43.6587 18.9834 43.992C19.2898 44.311 19.7372 44.3943 20.0369 44.1257C20.5064 43.7049 20.939 43.2428 21.3932 42.7923C21.1616 42.4161 20.8374 42.1876 20.5318 41.8513Z" fill="#707070"/>
</svg>
