<svg width="202" height="30" viewBox="0 0 202 30" fill="none" xmlns="http://www.w3.org/2000/svg">
<path d="M41 0H0L8.89492 6.27273L2.22373 30L18.0678 16.2273H25.7119L30.7153 10.0909H16.261L7.50508 18.1364L16.261 6.68182H35.9966L41 0Z" fill="#D9D9D9"/>
<path d="M49.3945 15.7461V26H46.4648V2.5625H58.1836V5.49219H49.3945V12.8164H55.2539V15.7461H49.3945ZM64.043 26H61.1133V2.5625H64.043V26ZM74.2969 5.49219V26H71.3672V5.49219H66.9727V2.5625H78.6914V5.49219H74.2969ZM84.5508 10.0332V26H81.6211V2.5625H84.5508L90.4102 18.5293V2.5625H93.3398V26H90.4102L84.5508 10.0332ZM107.988 2.5625V5.49219H99.1992V12.8164H105.059V15.7461H99.1992V23.0703H107.988V26H96.2695V2.5625H107.988ZM122.637 19.4082C122.637 21.2246 122.065 22.8018 120.923 24.1396C119.78 25.4775 118.398 26.1465 116.777 26.1465C115.156 26.1465 113.774 25.4775 112.632 24.1396C111.489 22.8018 110.918 21.2246 110.918 19.4082H113.848C113.848 20.4238 114.131 21.2881 114.697 22.001C115.273 22.7139 115.967 23.0703 116.777 23.0703C117.588 23.0703 118.276 22.7139 118.843 22.001C119.419 21.2881 119.707 20.4238 119.707 19.4082C119.707 18.4609 118.242 17.0059 115.312 15.043C112.383 13.0703 110.918 11.1074 110.918 9.1543C110.918 7.33789 111.489 5.76074 112.632 4.42285C113.774 3.08496 115.156 2.41602 116.777 2.41602C118.398 2.41602 119.78 3.08496 120.923 4.42285C122.065 5.76074 122.637 7.33789 122.637 9.1543H119.707C119.707 8.13867 119.419 7.27441 118.843 6.56152C118.276 5.84863 117.588 5.49219 116.777 5.49219C115.967 5.49219 115.273 5.84863 114.697 6.56152C114.131 7.27441 113.848 8.13867 113.848 9.1543C113.848 10.1016 115.312 11.5615 118.242 13.5342C121.172 15.4971 122.637 17.4551 122.637 19.4082ZM137.285 19.4082C137.285 21.2246 136.714 22.8018 135.571 24.1396C134.429 25.4775 133.047 26.1465 131.426 26.1465C129.805 26.1465 128.423 25.4775 127.28 24.1396C126.138 22.8018 125.566 21.2246 125.566 19.4082H128.496C128.496 20.4238 128.779 21.2881 129.346 22.001C129.922 22.7139 130.615 23.0703 131.426 23.0703C132.236 23.0703 132.925 22.7139 133.491 22.001C134.067 21.2881 134.355 20.4238 134.355 19.4082C134.355 18.4609 132.891 17.0059 129.961 15.043C127.031 13.0703 125.566 11.1074 125.566 9.1543C125.566 7.33789 126.138 5.76074 127.28 4.42285C128.423 3.08496 129.805 2.41602 131.426 2.41602C133.047 2.41602 134.429 3.08496 135.571 4.42285C136.714 5.76074 137.285 7.33789 137.285 9.1543H134.355C134.355 8.13867 134.067 7.27441 133.491 6.56152C132.925 5.84863 132.236 5.49219 131.426 5.49219C130.615 5.49219 129.922 5.84863 129.346 6.56152C128.779 7.27441 128.496 8.13867 128.496 9.1543C128.496 10.1016 129.961 11.5615 132.891 13.5342C135.82 15.4971 137.285 17.4551 137.285 19.4082ZM143.145 15.7461V26H140.215V2.5625H151.934V5.49219H143.145V12.8164H149.004V15.7461H143.145ZM154.863 2.5625H157.793V23.0703H166.582V26H154.863V2.5625ZM172.441 19.4082C172.441 20.4238 172.725 21.2881 173.291 22.001C173.867 22.7139 174.561 23.0703 175.371 23.0703C176.182 23.0703 176.87 22.7139 177.437 22.001C178.013 21.2881 178.301 20.4238 178.301 19.4082V9.1543C178.301 8.13867 178.013 7.27441 177.437 6.56152C176.87 5.84863 176.182 5.49219 175.371 5.49219C174.561 5.49219 173.867 5.84863 173.291 6.56152C172.725 7.27441 172.441 8.13867 172.441 9.1543V19.4082ZM181.23 19.4082C181.23 21.2246 180.659 22.8018 179.517 24.1396C178.374 25.4775 176.992 26.1465 175.371 26.1465C173.75 26.1465 172.368 25.4775 171.226 24.1396C170.083 22.8018 169.512 21.2246 169.512 19.4082V9.1543C169.512 7.33789 170.083 5.76074 171.226 4.42285C172.368 3.08496 173.75 2.41602 175.371 2.41602C176.992 2.41602 178.374 3.08496 179.517 4.42285C180.659 5.76074 181.23 7.33789 181.23 9.1543V19.4082ZM196.187 20.9756L197.344 2.5625H200.273L198.662 26H194.414L192.217 10.3701L190.02 26H185.771L184.16 2.5625H187.09L188.247 20.9756L191.118 2.5625H193.315L196.187 20.9756Z" fill="white"/>
</svg>
