<svg width="63" height="63" viewBox="0 0 63 63" fill="none" xmlns="http://www.w3.org/2000/svg">
<circle cx="31.5" cy="31.5" r="31" stroke="#CDCDCD"/>
<path d="M32.613 16.0029C33.1003 16.0416 33.5557 15.9142 33.9881 16.1298C34.4631 16.3665 34.7246 16.7292 34.7268 17.2639C34.7301 18.0645 34.7283 18.8652 34.7281 19.6658C34.7278 20.5674 34.448 20.9541 33.5503 21.248C33.796 21.9577 34.2673 22.4074 34.9795 22.6334C35.4623 22.7866 35.9726 22.8315 36.4373 23.0607C38.0556 23.8587 38.8966 25.1736 38.9161 26.9524C38.9528 30.2856 38.9399 33.6196 38.9173 36.9531C38.9137 37.4913 39.0357 37.8929 39.4564 38.242C40.0665 38.7483 40.4032 39.4229 40.3939 40.2227C40.3853 40.9685 40.1206 41.6742 39.5038 42.0804C38.9661 42.4346 38.9263 42.8546 38.9192 43.398C38.9025 44.6914 38.3505 45.7208 37.2692 46.4502C36.6156 46.8911 35.8745 47.0132 35.1079 47.0137C29.9838 47.0173 24.8595 47.0271 19.7354 47.0114C17.7832 47.0054 16.5282 45.9777 16.0453 44.069C16.0067 43.9164 16.0046 43.7518 16.0045 43.5929C16.0029 37.9883 15.9925 32.3837 16.01 26.7791C16.0159 24.8678 17.4661 23.1163 19.3866 22.7806C20.1178 22.6528 20.7804 22.3618 21.1859 21.6747C21.3332 21.4252 21.3911 21.2501 21.0228 21.1231C20.3865 20.9035 20.1629 20.3604 20.1375 19.7467C20.1063 18.991 20.1151 18.2327 20.1343 17.4762C20.1585 16.5254 20.7061 16.0027 21.6517 16.0024C25.291 16.0011 28.9303 16.0025 32.613 16.0029ZM35.3179 41.4799C35.501 41.3662 35.3455 41.2865 35.2806 41.2184C34.9592 40.8816 34.6079 40.5707 34.3082 40.2161C33.6605 39.4495 33.4305 38.589 33.8333 37.624C34.2037 36.7365 34.8514 36.2014 35.8161 36.0532C36.4076 35.9623 36.9588 36.123 37.4934 36.296C37.6007 36.1688 37.5787 36.0477 37.5789 35.9344C37.5821 33.7946 37.5723 31.6546 37.5932 29.5149C37.5975 29.0753 37.464 28.9359 37.0227 28.9396C34.8976 28.9575 32.7722 28.9477 30.6469 28.9426C30.4302 28.9421 30.2096 28.9267 29.9979 28.8836C29.6586 28.8146 29.5232 28.5722 29.5385 28.2416C29.5565 27.8522 29.8697 27.612 30.3816 27.6105C32.0556 27.6058 33.7296 27.6082 35.4037 27.6077C36.0005 27.6076 36.5974 27.6075 37.1942 27.6063C37.3737 27.606 37.5578 27.6092 37.5756 27.3587C37.6822 25.8576 36.9578 24.4096 35.2786 24.0838C33.794 23.7958 32.7487 23.021 32.2593 21.5781C32.1421 21.2325 31.9486 21.1851 31.6438 21.1858C28.8489 21.1921 26.0539 21.1957 23.2591 21.1815C22.926 21.1798 22.7717 21.2842 22.6648 21.5952C22.1989 22.9508 21.2335 23.8065 19.8398 24.0307C18.3694 24.2673 17.3031 25.5321 17.3284 27.0641C17.336 27.5211 17.4832 27.62 17.9095 27.6161C20.0638 27.5966 22.2183 27.6071 24.3727 27.6075C24.5037 27.6076 24.6377 27.5943 24.765 27.6169C25.1151 27.6791 25.3549 27.8736 25.3815 28.2461C25.4088 28.6276 25.2073 28.8503 24.8348 28.9065C24.649 28.9345 24.4589 28.9441 24.2706 28.9443C22.1308 28.9471 19.9909 28.9518 17.8511 28.9415C17.4921 28.9398 17.3317 29.0282 17.3331 29.4295C17.3461 33.3016 17.3448 37.1737 17.3368 41.0459C17.3361 41.3848 17.4431 41.5 17.7882 41.4994C23.6109 41.4889 29.4337 41.4891 35.3179 41.4799ZM26.2794 42.8224C25.741 42.8227 25.2025 42.8231 24.6641 42.8232C22.4084 42.8234 20.1528 42.823 17.8972 42.8241C17.3571 42.8243 17.3374 42.8469 17.3412 43.3928C17.3505 44.7382 18.3045 45.6881 19.6638 45.6888C24.8445 45.6916 30.0251 45.6914 35.2058 45.6892C36.5588 45.6886 37.441 44.8751 37.5744 43.5197C37.6371 42.8824 37.5848 42.8235 36.9318 42.8233C33.4101 42.8223 29.8885 42.8226 26.2794 42.8224ZM35.8039 39.8609C36.1953 40.2485 36.5805 40.6428 36.9799 41.0221C37.445 41.4638 38.242 41.473 38.6845 41.0559C39.1533 40.6139 39.1841 39.8702 38.7156 39.3737C38.1582 38.7829 37.5816 38.2091 36.9923 37.6501C36.5915 37.2699 35.9787 37.2382 35.5422 37.5273C35.0772 37.8353 34.9183 38.3374 35.0634 38.894C35.1713 39.308 35.5046 39.5275 35.8039 39.8609ZM30.756 18.7586C30.7559 18.5697 30.7595 18.3808 30.7549 18.192C30.7325 17.2837 30.9647 17.3346 29.8489 17.3348C29.5673 17.3348 29.4568 17.4503 29.4629 17.7255C29.4725 18.1612 29.4612 18.5972 29.4672 19.033C29.4797 19.9541 29.314 19.9086 30.3126 19.8977C30.668 19.8939 30.7885 19.7935 30.7594 19.4546C30.7421 19.2527 30.7561 19.0481 30.756 18.7586ZM24.1554 19.4195C24.1052 19.7724 24.2531 19.9329 24.6128 19.9036C24.7857 19.8895 24.9612 19.8817 25.1337 19.8946C25.3707 19.9124 25.4383 19.7965 25.4357 19.5843C25.4298 19.1063 25.4348 18.6282 25.4314 18.1502C25.4253 17.2811 25.5594 17.353 24.6155 17.3323C24.2405 17.324 24.1392 17.4773 24.1514 17.8202C24.1694 18.3265 24.1552 18.834 24.1554 19.4195ZM32.089 17.9018C32.0896 18.2503 32.0885 18.5989 32.0912 18.9475C32.0989 19.9692 31.9707 19.934 33.0455 19.8785C33.3169 19.8645 33.4008 19.787 33.3952 19.5275C33.383 18.9613 33.372 18.3938 33.3978 17.8285C33.4152 17.4466 33.2825 17.2855 32.8992 17.3348C32.7849 17.3495 32.6658 17.349 32.5512 17.3358C32.1783 17.2926 32.0477 17.4718 32.089 17.9018ZM21.9341 17.3382C21.6297 17.3055 21.5207 17.4471 21.532 17.7447C21.548 18.1651 21.5312 18.5867 21.5376 19.0076C21.5512 19.9074 21.3481 19.9431 22.4532 19.8801C22.7604 19.8625 22.8151 19.7408 22.8084 19.4819C22.7968 19.0322 22.8084 18.5819 22.8048 18.1318C22.798 17.281 22.9247 17.3369 21.9341 17.3382ZM28.1227 18.6701C28.1225 18.5103 28.1225 18.3506 28.1223 18.1908C28.1214 17.3088 28.1053 17.3041 27.2142 17.3318C26.9051 17.3414 26.809 17.4637 26.8233 17.7575C26.8458 18.2215 26.8449 18.6867 26.8468 19.1514C26.8498 19.9252 26.8476 19.9038 27.6008 19.9086C27.9807 19.9111 28.1301 19.7724 28.117 19.408C28.1093 19.1905 28.1202 18.9724 28.1227 18.6701Z" fill="#707070"/>
<path d="M45.4042 35.788C44.8673 36.2946 44.4208 36.8478 43.7335 37.1376C42.4586 37.6753 40.9271 36.8632 40.4798 35.6761C40.0803 34.6161 40.3514 33.7388 41.074 32.9585C41.6065 32.3834 42.1717 31.8375 42.7373 31.2941C43.5184 30.5436 44.6451 30.3692 45.6046 30.8296C46.5352 31.2762 47.1174 32.2665 47.0327 33.3173C46.986 33.8971 46.7468 34.4102 46.345 34.8359C46.0459 35.1528 45.7335 35.4573 45.4042 35.788ZM44.9718 34.3504C45.1043 34.2161 45.2426 34.0869 45.3683 33.9464C45.8134 33.4491 45.8181 32.7281 45.3841 32.2892C44.9168 31.8168 44.1998 31.7692 43.6979 32.2317C43.1119 32.7717 42.5491 33.3394 42.0058 33.9227C41.5127 34.452 41.5366 35.1817 42.0167 35.6382C42.4666 36.066 43.2527 36.036 43.7526 35.5592C44.1516 35.1784 44.5374 34.7838 44.9718 34.3504Z" fill="#707070"/>
<path d="M45.2328 45.6657C44.6904 46.2159 44.1962 46.7795 43.414 46.9332C41.4602 47.3172 40.2413 45.7599 40.2947 44.3598C40.3164 43.7897 40.5294 43.248 40.9404 42.8234C41.5576 42.1858 42.1689 41.5404 42.8188 40.9372C43.6431 40.172 44.7162 40.0698 45.7325 40.6034C46.569 41.0425 47.1461 42.1107 47.0289 43.0897C46.9623 43.6459 46.7408 44.1541 46.3345 44.5622C45.975 44.9232 45.6147 45.2835 45.2328 45.6657ZM44.4614 41.6165C44.1797 41.6448 43.9044 41.7219 43.7027 41.9174C43.1079 42.4941 42.5237 43.0824 41.9511 43.6811C41.6987 43.945 41.5959 44.2871 41.6657 44.6485C41.8638 45.6744 42.8991 46.0294 43.6855 45.3255C44.2161 44.8506 44.6952 44.3187 45.2092 43.8246C45.5938 43.4549 45.801 43.037 45.655 42.497C45.5006 41.9256 45.0797 41.6893 44.4614 41.6165Z" fill="#707070"/>
<path d="M33.319 33.9199C33.1941 36.0103 32.1566 37.4132 30.2746 38.191C29.4744 38.5217 28.6308 38.5285 27.788 38.3683C27.5995 38.3325 27.4175 38.2965 27.2286 38.3403C24.4827 38.9778 22.0155 37.0907 21.6019 34.3728C21.516 33.8082 21.5755 33.2433 21.771 32.6975C21.9095 32.3109 22.1955 32.1277 22.581 32.0595C24.4978 31.7208 26.0341 32.3566 27.2289 33.8701C27.2913 33.9491 27.3539 34.0279 27.4095 34.098C27.5569 34.1028 27.5904 33.9903 27.6493 33.9144C28.8302 32.3934 30.3504 31.7228 32.2771 32.0552C32.8838 32.1598 33.1628 32.4341 33.2443 33.0557C33.2802 33.3291 33.2949 33.6053 33.319 33.9199ZM29.4813 34.9719C29.8631 34.8793 30.1427 35.0184 30.3082 35.3646C30.4731 35.7099 30.2582 35.9536 30.0371 36.1694C29.7479 36.4516 29.4504 36.7238 29.2005 37.0636C30.6237 37.0046 32.0462 35.4143 31.9805 33.879C31.958 33.3553 31.933 33.3062 31.4056 33.3049C30.1204 33.3016 29.1904 33.9241 28.5458 34.993C28.3667 35.2899 28.18 35.6146 28.2142 36.0701C28.677 35.7214 28.9801 35.2807 29.4813 34.9719ZM23.0197 34.5525C23.4166 36.0063 24.5943 37.1021 25.7052 37.0317C25.3758 36.6872 25.0405 36.3644 24.739 36.0125C24.4972 35.7303 24.52 35.4091 24.7747 35.1438C25.0338 34.8739 25.3435 34.8723 25.6388 35.0957C25.7885 35.2089 25.9124 35.3555 26.0542 35.4798C26.2705 35.6693 26.4303 35.9275 26.7468 36.0907C26.4486 34.6157 25.5961 33.7093 24.2184 33.3819C23.2382 33.149 22.7115 33.1079 23.0197 34.5525Z" fill="#707070"/>
<path d="M26.8028 28.3801C26.7856 27.9974 26.9844 27.7819 27.2797 27.65C27.4823 27.5595 27.682 27.621 27.8448 27.7614C28.0563 27.9437 28.165 28.1757 28.0813 28.4571C27.9992 28.7335 27.8014 28.8971 27.5152 28.9204C27.1445 28.9505 26.919 28.756 26.8028 28.3801Z" fill="#707070"/>
</svg>
