<svg width="63" height="63" viewBox="0 0 63 63" fill="none" xmlns="http://www.w3.org/2000/svg">
<circle cx="31.5" cy="31.5" r="31" stroke="#CDCDCD"/>
<path d="M15.016 32.9926C15.016 28.1903 15.0386 23.434 15.0001 18.6781C14.9904 17.4855 15.8813 16.6382 17.0162 16.6791C17.1847 16.6852 17.3562 16.6606 17.522 16.6829C18.0866 16.7587 18.4158 16.6118 18.6375 15.9971C18.8974 15.2762 19.5565 14.9435 20.3417 15.0156C21.0345 15.0792 21.5687 15.4234 21.7934 16.1046C21.9407 16.5515 22.1741 16.767 22.6559 16.6837C22.8197 16.6554 22.995 16.6611 23.161 16.6828C23.7489 16.7597 24.1394 16.6449 24.353 15.9734C24.5692 15.2935 25.3186 14.9585 26.0731 15.0129C26.7264 15.06 27.3661 15.5516 27.538 16.2284C27.6346 16.6091 27.8142 16.7241 28.1753 16.6835C28.3874 16.6596 28.6062 16.6625 28.8189 16.684C29.3967 16.7421 29.8162 16.6946 30.0542 15.9906C30.3085 15.2385 31.0774 14.9194 31.8519 15.0172C32.5232 15.1019 33.1304 15.6533 33.2995 16.385C33.3549 16.6244 33.4686 16.6806 33.6766 16.6795C34.1829 16.6769 34.6893 16.676 35.1955 16.6826C35.41 16.6854 35.5076 16.6107 35.5736 16.3856C35.8352 15.4938 36.4676 15.0069 37.3 15.0101C38.1071 15.0133 38.7629 15.5112 39.0003 16.362C39.0792 16.6448 39.2335 16.6684 39.4642 16.6827C40.0556 16.7193 40.6528 16.5897 41.2391 16.8169C42.0388 17.1269 42.5011 17.7557 42.5017 18.6455C42.5038 21.6833 42.5137 24.7212 42.4916 27.7589C42.488 28.2528 42.6391 28.5062 43.0819 28.752C45.4363 30.0596 47.0324 31.9918 47.784 34.6069C48.4319 36.8617 48.3002 39.0728 47.3609 41.1997C46.2725 43.6642 44.4425 45.403 41.9173 46.3906C40.2482 47.0434 38.5292 47.1914 36.7726 46.898C35.5684 46.6968 34.4374 46.2689 33.3997 45.6256C33.0828 45.4292 32.7729 45.3453 32.4074 45.3457C27.7279 45.3514 23.0484 45.3493 18.3689 45.3478C17.4625 45.3475 17.269 45.1512 17.259 44.2366C17.2459 43.0436 17.2459 43.0436 16.0648 43.0408C15.1511 43.0386 15.0159 42.9069 15.0158 42.0139C15.0156 39.0222 15.0159 36.0304 15.016 32.9926ZM29.2338 41.7989C29.3929 41.7774 29.5761 41.8509 29.7113 41.6687C29.2912 40.708 28.9216 39.7296 28.7912 38.6672C28.5233 36.4853 28.8215 34.4042 29.9521 32.5088C31.9193 29.2109 34.8537 27.5611 38.7011 27.5351C39.4308 27.5302 40.1307 27.6956 40.8333 27.8429C41.1356 27.9063 41.2445 27.8047 41.2455 27.5393C41.2509 25.9743 41.2483 24.4092 41.25 22.8442C41.2503 22.6058 41.122 22.5198 40.9009 22.5233C40.7322 22.526 40.5634 22.5173 40.3947 22.5173C32.5537 22.517 24.7127 22.517 16.8718 22.5173C16.2699 22.5173 16.2691 22.5186 16.2691 23.1389C16.2687 29.1539 16.2687 35.1688 16.2687 41.1838C16.2687 41.2912 16.274 41.3987 16.2707 41.506C16.2637 41.7279 16.3809 41.7958 16.5871 41.7943C17.123 41.7902 17.659 41.8002 18.195 41.8003C21.8469 41.8006 25.4989 41.7998 29.2338 41.7989ZM26.2326 19.667C25.8031 19.6665 25.3735 19.671 24.9441 19.6642C24.3811 19.6553 24.1662 19.4597 24.0994 18.9121C23.9846 17.9717 23.9846 17.9717 23.0087 17.9727C22.9626 17.9727 22.9166 17.973 22.8706 17.9728C21.7883 17.9664 21.9837 17.9919 21.9684 18.8623C21.9588 19.4069 21.7273 19.6529 21.1829 19.6641C20.5083 19.6779 19.833 19.6599 19.1582 19.669C18.7045 19.675 18.4784 19.4225 18.4057 19.0173C18.3686 18.8102 18.3949 18.5909 18.4005 18.3774C18.4076 18.1028 18.3221 17.9464 18.0045 17.9672C17.6531 17.9902 17.2989 17.9654 16.9464 17.9768C16.4361 17.9932 16.2738 18.166 16.2703 18.6907C16.2658 19.3657 16.2959 20.042 16.2608 20.7152C16.2369 21.1743 16.4139 21.2784 16.8435 21.2778C22.8569 21.268 28.8703 21.2742 34.8837 21.2757C36.8165 21.2762 38.7495 21.2636 40.6822 21.2812C41.1287 21.2852 41.277 21.1268 41.26 20.692C41.2342 20.0334 41.2601 19.373 41.2535 18.7134C41.248 18.1672 40.9955 17.9365 40.4506 17.9571C40.2974 17.9629 40.1441 17.9701 39.9908 17.9712C39.0689 17.9775 39.0792 17.8968 39.0782 18.8153C39.0776 19.4405 38.8242 19.6581 38.1934 19.6641C37.5491 19.6702 36.9046 19.6752 36.2606 19.6608C35.7844 19.6502 35.5788 19.4416 35.5536 18.9967C35.4953 17.9707 35.4953 17.9707 34.4696 17.9731C34.4389 17.9731 34.4082 17.9731 34.3776 17.9733C33.1958 17.9786 33.4145 17.9189 33.3343 18.9446C33.2939 19.4599 33.1169 19.647 32.5814 19.662C32.1215 19.6748 31.6611 19.6668 31.2008 19.6663C29.9106 19.6651 29.9019 19.6651 29.846 18.3994C29.832 18.0829 29.7156 17.9587 29.4038 17.9695C29.0054 17.9832 28.605 17.993 28.2077 17.9682C27.7847 17.9417 27.6488 18.1149 27.6462 18.5298C27.6397 19.5717 27.5307 19.6634 26.5073 19.6665C26.4459 19.6667 26.3845 19.6668 26.2326 19.667ZM44.6056 31.4749C41.8381 28.604 37.7361 27.9848 34.3144 29.8656C30.4445 31.9929 28.9124 36.6755 30.6862 40.7401C32.2197 44.2538 35.995 46.2798 39.7697 45.6749C43.349 45.1014 46.3296 42.1989 46.8138 38.5206C47.1655 35.8492 46.4421 33.5246 44.6056 31.4749ZM19.6089 44.102C23.5154 44.102 27.4219 44.102 31.3667 44.102C30.9372 43.2844 30.3892 43.0005 29.5169 43.0158C26.1006 43.0755 22.6827 43.0407 19.2654 43.0416C19.1276 43.0417 18.9897 43.0471 18.8519 43.0503C18.6675 43.0546 18.5895 43.1486 18.5622 43.333C18.4668 43.9779 18.5603 44.0981 19.1965 44.1011C19.3038 44.1016 19.4111 44.1015 19.6089 44.102ZM19.6622 17.3099C19.6641 17.5703 19.6696 17.8309 19.6668 18.0913C19.6634 18.4055 19.8738 18.4339 20.1032 18.4098C20.335 18.3855 20.6842 18.5418 20.7072 18.1236C20.7323 17.6654 20.7352 17.2028 20.6999 16.7458C20.6798 16.4854 20.4899 16.2969 20.2101 16.2774C19.9364 16.2583 19.8037 16.4316 19.7304 16.6804C19.6773 16.8607 19.6607 17.0401 19.6622 17.3099ZM32.0652 17.3883C32.0646 17.1898 32.0664 16.9912 32.0629 16.7928C32.0575 16.4899 31.9149 16.2842 31.603 16.2756C31.2964 16.2671 31.1168 16.4576 31.1053 16.7581C31.0877 17.2155 31.0975 17.674 31.0981 18.132C31.0983 18.2634 31.1402 18.3596 31.2865 18.4056C31.798 18.5662 32.0655 18.3774 32.0663 17.8432C32.0665 17.721 32.0656 17.5989 32.0652 17.3883ZM37.7784 17.9921C37.7772 17.5962 37.7785 17.2003 37.774 16.8045C37.7705 16.5033 37.6204 16.2909 37.3186 16.2804C36.9966 16.2691 36.8162 16.4707 36.81 16.798C36.8026 17.1937 36.8057 17.5897 36.8061 17.9855C36.8063 18.1843 36.781 18.4236 37.078 18.4061C37.3449 18.3904 37.7341 18.5812 37.7784 17.9921ZM25.3736 17.9087C25.3196 18.3646 25.5782 18.4251 25.9583 18.4262C26.3807 18.4273 26.374 18.1779 26.3675 17.8856C26.3601 17.5507 26.3612 17.2154 26.3654 16.8804C26.3696 16.55 26.2598 16.2858 25.8949 16.2809C25.5348 16.2761 25.403 16.5441 25.3867 16.864C25.3704 17.1831 25.3768 17.5034 25.3736 17.9087Z" fill="#707070"/>
<path d="M21.8229 31.6386C21.4858 32.4042 20.6482 32.9256 19.9931 32.8039C19.1112 32.6401 18.4939 31.9959 18.443 31.113C18.4012 30.3887 18.7903 29.6279 19.682 29.3389C20.3997 29.1063 20.9626 29.3293 21.4335 29.8013C21.9249 30.2939 22.1448 30.905 21.8229 31.6386ZM20.6856 31.0722C20.6715 30.6848 20.4271 30.5204 20.0877 30.5642C19.7639 30.6061 19.7177 30.8801 19.7642 31.1626C19.7955 31.3523 19.9306 31.4545 20.1026 31.4882C20.3918 31.5447 20.5538 31.3733 20.6856 31.0722Z" fill="#707070"/>
<path d="M27.5924 31.4177C27.3798 32.3672 26.49 32.7782 25.9243 32.8123C25.2172 32.8549 24.4644 32.2929 24.211 31.574C23.9765 30.9087 24.2137 30.0952 24.8 29.6389C25.3831 29.1852 26.0256 29.1108 26.6826 29.4566C27.281 29.7714 27.6295 30.2634 27.6111 30.9685C27.6076 31.1061 27.6024 31.2436 27.5924 31.4177ZM25.6857 31.4445C25.9999 31.5694 26.2293 31.4651 26.3339 31.1568C26.4069 30.9418 26.3514 30.7373 26.126 30.614C25.8885 30.4842 25.672 30.5268 25.5218 30.7347C25.3468 30.977 25.3752 31.2186 25.6857 31.4445Z" fill="#707070"/>
<path d="M18.6965 25.5229C19.2465 24.8353 19.9884 24.5333 20.6013 24.7397C21.4552 25.0274 21.8807 25.5229 21.9518 26.3578C22.014 27.0877 21.6544 27.6822 20.9984 28.0111C20.3523 28.335 19.6809 28.3093 19.0979 27.8323C18.5417 27.3772 18.3336 26.7817 18.4919 26.0671C18.5321 25.8856 18.5766 25.7097 18.6965 25.5229ZM20.6816 26.5526C20.7422 26.253 20.55 26.1063 20.3287 25.9861C20.1729 25.9015 20.0308 25.9602 19.9143 26.0737C19.6854 26.2966 19.6443 26.5568 19.8518 26.8029C20.0345 27.0194 20.4047 26.9194 20.6816 26.5526Z" fill="#707070"/>
<path d="M27.5943 35.2086C27.6536 36.6002 26.9272 37.4109 25.7241 37.3384C24.8221 37.284 24.0646 36.4016 24.1266 35.4775C24.1915 34.5106 25.0476 33.7532 25.9819 33.8363C26.8228 33.9111 27.3168 34.3216 27.5943 35.2086ZM26.3397 35.7428C26.3882 35.4619 26.3519 35.2137 26.0247 35.1435C25.8093 35.0973 25.5854 35.1204 25.493 35.3685C25.4012 35.6151 25.4255 35.8571 25.6701 36.0089C25.95 36.1827 26.1558 36.0546 26.3397 35.7428Z" fill="#707070"/>
<path d="M18.436 35.6507C18.4562 34.8533 18.7895 34.2641 19.4868 33.9712C20.0955 33.7154 20.7143 33.781 21.2668 34.1975C21.8273 34.6199 22.1141 35.4459 21.8946 36.0345C21.552 36.9532 20.9113 37.3984 20.0169 37.3393C19.3027 37.2921 18.6691 36.7328 18.5058 36.0049C18.4823 35.9003 18.4611 35.7952 18.436 35.6507ZM19.7507 35.5352C19.742 35.8248 19.8275 36.0592 20.157 36.0807C20.469 36.1012 20.6371 35.8843 20.6867 35.619C20.7299 35.3875 20.5758 35.201 20.3484 35.152C20.0867 35.0956 19.819 35.1019 19.7507 35.5352Z" fill="#707070"/>
<path d="M27.6072 26.4552C27.5754 27.5076 26.8359 28.234 25.8556 28.2176C24.9052 28.2016 24.1482 27.4382 24.1373 26.4847C24.1265 25.5321 24.9177 24.7056 25.8538 24.6916C26.8327 24.677 27.5722 25.4033 27.6072 26.4552ZM25.7316 26.8922C26.0068 26.9244 26.2674 26.9161 26.3454 26.5776C26.4037 26.3246 26.3094 26.1286 26.0778 26.0038C25.8358 25.8734 25.6528 25.9925 25.525 26.1752C25.3399 26.4403 25.3694 26.6914 25.7316 26.8922Z" fill="#707070"/>
<path d="M33.0226 25.4405C33.6078 26.2578 33.3338 27.529 32.4257 28.0089C31.5076 28.4941 30.4243 28.1159 29.9668 27.125C29.6472 26.4328 29.9008 25.5285 30.5531 25.0342C31.1822 24.5575 32.0708 24.5759 32.6821 25.0848C32.799 25.1821 32.8975 25.3015 33.0226 25.4405ZM31.1235 26.631C31.2475 26.9098 31.4841 26.9324 31.7396 26.8915C31.927 26.8615 32.0307 26.7399 32.0541 26.5502C32.0947 26.2196 31.9397 25.9785 31.6261 25.9664C31.2714 25.9527 31.0734 26.1824 31.1235 26.631Z" fill="#707070"/>
<path d="M45.6556 39.1767C44.8525 41.9125 43.1097 43.6949 40.4167 44.4783C36.7054 45.558 32.8782 43.562 31.5063 40.0754C30.121 36.5547 31.4519 32.545 35.0223 30.6545C36.3664 29.9427 37.8163 29.6785 39.2987 29.876C41.9758 30.2325 43.9588 31.6486 45.1654 34.0823C45.9659 35.6972 46.0377 37.4015 45.6556 39.1767ZM37.7304 43.3399C37.8216 43.0709 37.7531 42.7911 37.7861 42.518C37.8308 42.148 37.9842 41.864 38.3927 41.8244C38.7453 41.7902 38.9891 42.0546 39.0753 42.4918C39.1359 42.7991 38.9317 43.2123 39.223 43.3972C39.518 43.5843 39.8666 43.3085 40.181 43.2179C42.4223 42.5725 43.7648 41.0306 44.457 38.8601C44.5298 38.6317 44.4775 38.466 44.1813 38.4754C43.9521 38.4828 43.7208 38.4806 43.4928 38.4585C43.1948 38.4296 43.0214 38.2283 42.9628 37.9566C42.8992 37.6618 43.0786 37.4625 43.3138 37.3173C43.477 37.2166 43.6658 37.2236 43.8504 37.2197C44.6421 37.2029 44.647 37.1974 44.5785 36.4159C44.5718 36.3398 44.5606 36.2636 44.5456 36.1887C44.1419 34.1836 43.0336 32.6978 41.227 31.7478C40.5802 31.4076 39.8843 31.1974 39.078 31.1485C39.078 31.4729 39.0938 31.7466 39.0745 32.0179C39.0428 32.4607 38.7581 32.7779 38.4199 32.7787C38.0881 32.7795 37.8194 32.4557 37.7869 32.0003C37.7738 31.8171 37.779 31.6322 37.7836 31.4483C37.7906 31.1684 37.6535 31.1172 37.402 31.1644C36.2149 31.3872 35.1482 31.8693 34.261 32.6889C33.1052 33.7567 32.4157 35.0692 32.2808 36.6592C32.2417 37.1196 32.4216 37.2699 32.8541 37.2224C33.0197 37.2041 33.1976 37.2034 33.3572 37.2443C33.6998 37.3321 33.9559 37.5534 33.9157 37.9251C33.8787 38.2665 33.6228 38.449 33.2696 38.4601C33.101 38.4654 32.9319 38.4707 32.7635 38.4638C32.4043 38.4491 32.3362 38.6434 32.4304 38.9348C33.0699 40.9154 34.3015 42.3608 36.2765 43.0994C36.7213 43.2658 37.1778 43.47 37.7304 43.3399Z" fill="#707070"/>
<path d="M38.1491 36.3239C38.5756 36.9452 38.5716 36.9404 39.1211 36.479C39.8488 35.8679 40.5832 35.2647 41.3156 34.6593C41.5069 34.5012 41.704 34.3507 41.9772 34.4161C42.2262 34.4757 42.3669 34.6557 42.4474 34.8804C42.5471 35.1586 42.3839 35.3669 42.1983 35.5243C41.1113 36.446 40.0201 37.3633 38.9159 38.2643C38.5114 38.5943 38.1506 38.5281 37.8555 38.1059C37.5132 37.6162 37.1787 37.1203 36.8602 36.6149C36.6069 36.2128 36.6638 35.8478 36.977 35.6431C37.2917 35.4375 37.6091 35.5425 37.9014 35.952C37.9815 36.0642 38.0552 36.181 38.1491 36.3239Z" fill="#707070"/>
</svg>
